<?xml version="1.0" encoding="UTF-8" standalone="no"?>
<!DOCTYPE svg PUBLIC "-//W3C//DTD SVG 1.1//EN"
 "http://www.w3.org/Graphics/SVG/1.1/DTD/svg11.dtd">
<!-- Generated by graphviz version 2.40.1 (20161225.0304)
 -->
<!-- Title: athena::core::InputNode Pages: 1 -->
<svg width="332pt" height="173pt"
 viewBox="0.00 0.00 332.00 173.00" xmlns="http://www.w3.org/2000/svg" xmlns:xlink="http://www.w3.org/1999/xlink">
<g id="graph0" class="graph" transform="scale(1 1) rotate(0) translate(4 169)">
<title>athena::core::InputNode</title>
<!-- Node2 -->
<g id="node1" class="node">
<title>Node2</title>
<polygon fill="#bfbfbf" stroke="#000000" points="135.5,-.5 135.5,-19.5 269.5,-19.5 269.5,-.5 135.5,-.5"/>
<text text-anchor="middle" x="202.5" y="-7.5" font-family="Helvetica,sans-Serif" font-size="10.00" fill="#000000">athena::core::InputNode</text>
</g>
<!-- Node3 -->
<g id="node2" class="node">
<title>Node3</title>
<g id="a_node2"><a xlink:href="../../dc/d7b/classathena_1_1core_1_1AbstractNode.html" target="_top" xlink:title="athena::core::AbstractNode">
<polygon fill="none" stroke="#000000" points="0,-67.5 0,-86.5 149,-86.5 149,-67.5 0,-67.5"/>
<text text-anchor="middle" x="74.5" y="-74.5" font-family="Helvetica,sans-Serif" font-size="10.00" fill="#000000">athena::core::AbstractNode</text>
</a>
</g>
</g>
<!-- Node3&#45;&gt;Node2 -->
<g id="edge1" class="edge">
<title>Node3&#45;&gt;Node2</title>
<path fill="none" stroke="#191970" d="M101.7625,-62.7298C126.6119,-49.7227 162.6336,-30.8676 184.1947,-19.5817"/>
<polygon fill="#191970" stroke="#191970" points="100.0758,-59.6621 92.8393,-67.4005 103.3221,-65.8639 100.0758,-59.6621"/>
</g>
<!-- Node4 -->
<g id="node3" class="node">
<title>Node4</title>
<g id="a_node3"><a xlink:href="../../de/d65/classathena_1_1core_1_1inner_1_1Tensor.html" target="_top" xlink:title="athena::core::inner\l::Tensor">
<polygon fill="none" stroke="#000000" points="20.5,-134.5 20.5,-164.5 128.5,-164.5 128.5,-134.5 20.5,-134.5"/>
<text text-anchor="start" x="28.5" y="-152.5" font-family="Helvetica,sans-Serif" font-size="10.00" fill="#000000">athena::core::inner</text>
<text text-anchor="middle" x="74.5" y="-141.5" font-family="Helvetica,sans-Serif" font-size="10.00" fill="#000000">::Tensor</text>
</a>
</g>
</g>
<!-- Node4&#45;&gt;Node3 -->
<g id="edge2" class="edge">
<title>Node4&#45;&gt;Node3</title>
<path fill="none" stroke="#9a32cd" stroke-dasharray="5,2" d="M74.5,-124.305C74.5,-111.424 74.5,-96.4836 74.5,-86.8957"/>
<polygon fill="#9a32cd" stroke="#9a32cd" points="71.0001,-124.4779 74.5,-134.478 78.0001,-124.478 71.0001,-124.4779"/>
<text text-anchor="middle" x="97" y="-108" font-family="Helvetica,sans-Serif" font-size="10.00" fill="#000000"> mTensor</text>
</g>
<!-- Node5 -->
<g id="node4" class="node">
<title>Node5</title>
<g id="a_node4"><a xlink:href="../../db/d3a/classathena_1_1core_1_1AbstractLoader.html" target="_top" xlink:title="athena::core::AbstractLoader">
<polygon fill="none" stroke="#000000" points="167,-67.5 167,-86.5 324,-86.5 324,-67.5 167,-67.5"/>
<text text-anchor="middle" x="245.5" y="-74.5" font-family="Helvetica,sans-Serif" font-size="10.00" fill="#000000">athena::core::AbstractLoader</text>
</a>
</g>
</g>
<!-- Node5&#45;&gt;Node2 -->
<g id="edge3" class="edge">
<title>Node5&#45;&gt;Node2</title>
<path fill="none" stroke="#9a32cd" stroke-dasharray="5,2" d="M233.9351,-58.9803C225.7963,-46.2989 215.2225,-29.8235 208.6494,-19.5817"/>
<polygon fill="#9a32cd" stroke="#9a32cd" points="230.9923,-60.8751 239.3391,-67.4005 236.8834,-57.0942 230.9923,-60.8751"/>
<text text-anchor="middle" x="249.5" y="-41" font-family="Helvetica,sans-Serif" font-size="10.00" fill="#000000"> mLoader</text>
</g>
</g>
</svg>
