<?xml version="1.0" encoding="UTF-8" standalone="no"?>
<!DOCTYPE svg PUBLIC "-//W3C//DTD SVG 1.1//EN"
 "http://www.w3.org/Graphics/SVG/1.1/DTD/svg11.dtd">
<!-- Generated by graphviz version 2.40.1 (20161225.0304)
 -->
<!-- Title: athena::core::AbstractLoader Pages: 1 -->
<svg width="352pt" height="84pt"
 viewBox="0.00 0.00 352.00 84.00" xmlns="http://www.w3.org/2000/svg" xmlns:xlink="http://www.w3.org/1999/xlink">
<g id="graph0" class="graph" transform="scale(1 1) rotate(0) translate(4 80)">
<title>athena::core::AbstractLoader</title>
<!-- Node0 -->
<g id="node1" class="node">
<title>Node0</title>
<polygon fill="#bfbfbf" stroke="#000000" points="89,-56.5 89,-75.5 246,-75.5 246,-56.5 89,-56.5"/>
<text text-anchor="middle" x="167.5" y="-63.5" font-family="Helvetica,sans-Serif" font-size="10.00" fill="#000000">athena::core::AbstractLoader</text>
</g>
<!-- Node1 -->
<g id="node2" class="node">
<title>Node1</title>
<g id="a_node2"><a xlink:href="../../d6/d3e/classathena_1_1core_1_1DummyLoader.html" target="_top" xlink:title="athena::core::DummyLoader">
<polygon fill="none" stroke="#000000" points="0,-.5 0,-19.5 155,-19.5 155,-.5 0,-.5"/>
<text text-anchor="middle" x="77.5" y="-7.5" font-family="Helvetica,sans-Serif" font-size="10.00" fill="#000000">athena::core::DummyLoader</text>
</a>
</g>
</g>
<!-- Node0&#45;&gt;Node1 -->
<g id="edge1" class="edge">
<title>Node0&#45;&gt;Node1</title>
<path fill="none" stroke="#191970" d="M143.0216,-50.769C127.0734,-40.8456 106.749,-28.1994 92.9972,-19.6427"/>
<polygon fill="#191970" stroke="#191970" points="141.4835,-53.9342 151.8232,-56.2455 145.1817,-47.9908 141.4835,-53.9342"/>
</g>
<!-- Node2 -->
<g id="node3" class="node">
<title>Node2</title>
<g id="a_node3"><a xlink:href="../../d5/d50/classathena_1_1loaders_1_1MemoryLoader.html" target="_top" xlink:title="athena::loaders::MemoryLoader">
<polygon fill="none" stroke="#000000" points="173,-.5 173,-19.5 344,-19.5 344,-.5 173,-.5"/>
<text text-anchor="middle" x="258.5" y="-7.5" font-family="Helvetica,sans-Serif" font-size="10.00" fill="#000000">athena::loaders::MemoryLoader</text>
</a>
</g>
</g>
<!-- Node0&#45;&gt;Node2 -->
<g id="edge2" class="edge">
<title>Node0&#45;&gt;Node2</title>
<path fill="none" stroke="#191970" d="M192.2504,-50.769C208.3758,-40.8456 228.926,-28.1994 242.8307,-19.6427"/>
<polygon fill="#191970" stroke="#191970" points="190.0332,-48.0237 183.351,-56.2455 193.7019,-53.9853 190.0332,-48.0237"/>
</g>
</g>
</svg>
