<?xml version="1.0" encoding="UTF-8" standalone="no"?>
<!DOCTYPE svg PUBLIC "-//W3C//DTD SVG 1.1//EN"
 "http://www.w3.org/Graphics/SVG/1.1/DTD/svg11.dtd">
<!-- Generated by graphviz version 2.40.1 (20161225.0304)
 -->
<!-- Title: athena::core::Operation Pages: 1 -->
<svg width="342pt" height="84pt"
 viewBox="0.00 0.00 342.00 84.00" xmlns="http://www.w3.org/2000/svg" xmlns:xlink="http://www.w3.org/1999/xlink">
<g id="graph0" class="graph" transform="scale(1 1) rotate(0) translate(4 80)">
<title>athena::core::Operation</title>
<!-- Node0 -->
<g id="node1" class="node">
<title>Node0</title>
<polygon fill="#bfbfbf" stroke="#000000" points="107.5,-56.5 107.5,-75.5 238.5,-75.5 238.5,-56.5 107.5,-56.5"/>
<text text-anchor="middle" x="173" y="-63.5" font-family="Helvetica,sans-Serif" font-size="10.00" fill="#000000">athena::core::Operation</text>
</g>
<!-- Node1 -->
<g id="node2" class="node">
<title>Node1</title>
<g id="a_node2"><a xlink:href="../../d6/d00/classathena_1_1core_1_1OperationDummy.html" target="_top" xlink:title="athena::core::OperationDummy">
<polygon fill="none" stroke="#000000" points="0,-.5 0,-19.5 170,-19.5 170,-.5 0,-.5"/>
<text text-anchor="middle" x="85" y="-7.5" font-family="Helvetica,sans-Serif" font-size="10.00" fill="#000000">athena::core::OperationDummy</text>
</a>
</g>
</g>
<!-- Node0&#45;&gt;Node1 -->
<g id="edge1" class="edge">
<title>Node0&#45;&gt;Node1</title>
<path fill="none" stroke="#191970" d="M149.0655,-50.769C133.4717,-40.8456 113.599,-28.1994 100.1528,-19.6427"/>
<polygon fill="#191970" stroke="#191970" points="147.3559,-53.8296 157.6716,-56.2455 151.114,-47.9239 147.3559,-53.8296"/>
</g>
<!-- Node2 -->
<g id="node3" class="node">
<title>Node2</title>
<g id="a_node3"><a xlink:href="../../d9/da1/classathena_1_1ops_1_1AddOperation.html" target="_top" xlink:title="athena::ops::AddOperation">
<polygon fill="none" stroke="#000000" points="188,-.5 188,-19.5 334,-19.5 334,-.5 188,-.5"/>
<text text-anchor="middle" x="261" y="-7.5" font-family="Helvetica,sans-Serif" font-size="10.00" fill="#000000">athena::ops::AddOperation</text>
</a>
</g>
</g>
<!-- Node0&#45;&gt;Node2 -->
<g id="edge2" class="edge">
<title>Node0&#45;&gt;Node2</title>
<path fill="none" stroke="#191970" d="M196.9345,-50.769C212.5283,-40.8456 232.401,-28.1994 245.8472,-19.6427"/>
<polygon fill="#191970" stroke="#191970" points="194.886,-47.9239 188.3284,-56.2455 198.6441,-53.8296 194.886,-47.9239"/>
</g>
</g>
</svg>
