<?xml version="1.0" encoding="UTF-8" standalone="no"?>
<!DOCTYPE svg PUBLIC "-//W3C//DTD SVG 1.1//EN"
 "http://www.w3.org/Graphics/SVG/1.1/DTD/svg11.dtd">
<!-- Generated by graphviz version 2.40.1 (20161225.0304)
 -->
<!-- Title: athena::core::inner::NullRecord&lt; AbstractNode * &gt; Pages: 1 -->
<svg width="180pt" height="184pt"
 viewBox="0.00 0.00 180.00 184.00" xmlns="http://www.w3.org/2000/svg" xmlns:xlink="http://www.w3.org/1999/xlink">
<g id="graph0" class="graph" transform="scale(1 1) rotate(0) translate(4 180)">
<title>athena::core::inner::NullRecord&lt; AbstractNode * &gt;</title>
<!-- Node1 -->
<g id="node1" class="node">
<title>Node1</title>
<polygon fill="#bfbfbf" stroke="#000000" points="0,-.5 0,-30.5 172,-30.5 172,-.5 0,-.5"/>
<text text-anchor="start" x="8" y="-18.5" font-family="Helvetica,sans-Serif" font-size="10.00" fill="#000000">athena::core::inner</text>
<text text-anchor="middle" x="86" y="-7.5" font-family="Helvetica,sans-Serif" font-size="10.00" fill="#000000">::NullRecord&lt; AbstractNode * &gt;</text>
</g>
<!-- Node2 -->
<g id="node2" class="node">
<title>Node2</title>
<g id="a_node2"><a xlink:href="../../dc/d7b/classathena_1_1core_1_1AbstractNode.html" target="_top" xlink:title="athena::core::AbstractNode">
<polygon fill="none" stroke="#000000" points="11.5,-78.5 11.5,-97.5 160.5,-97.5 160.5,-78.5 11.5,-78.5"/>
<text text-anchor="middle" x="86" y="-85.5" font-family="Helvetica,sans-Serif" font-size="10.00" fill="#000000">athena::core::AbstractNode</text>
</a>
</g>
</g>
<!-- Node2&#45;&gt;Node1 -->
<g id="edge1" class="edge">
<title>Node2&#45;&gt;Node1</title>
<path fill="none" stroke="#9a32cd" stroke-dasharray="5,2" d="M86,-68.0177C86,-56.2164 86,-41.513 86,-30.668"/>
<polygon fill="#9a32cd" stroke="#9a32cd" points="82.5001,-68.2223 86,-78.2223 89.5001,-68.2224 82.5001,-68.2223"/>
<text text-anchor="middle" x="101.5" y="-52" font-family="Helvetica,sans-Serif" font-size="10.00" fill="#000000"> value</text>
</g>
<!-- Node3 -->
<g id="node3" class="node">
<title>Node3</title>
<g id="a_node3"><a xlink:href="../../de/d65/classathena_1_1core_1_1inner_1_1Tensor.html" target="_top" xlink:title="athena::core::inner\l::Tensor">
<polygon fill="none" stroke="#000000" points="32,-145.5 32,-175.5 140,-175.5 140,-145.5 32,-145.5"/>
<text text-anchor="start" x="40" y="-163.5" font-family="Helvetica,sans-Serif" font-size="10.00" fill="#000000">athena::core::inner</text>
<text text-anchor="middle" x="86" y="-152.5" font-family="Helvetica,sans-Serif" font-size="10.00" fill="#000000">::Tensor</text>
</a>
</g>
</g>
<!-- Node3&#45;&gt;Node2 -->
<g id="edge2" class="edge">
<title>Node3&#45;&gt;Node2</title>
<path fill="none" stroke="#9a32cd" stroke-dasharray="5,2" d="M86,-135.305C86,-122.424 86,-107.4836 86,-97.8957"/>
<polygon fill="#9a32cd" stroke="#9a32cd" points="82.5001,-135.4779 86,-145.478 89.5001,-135.478 82.5001,-135.4779"/>
<text text-anchor="middle" x="108.5" y="-119" font-family="Helvetica,sans-Serif" font-size="10.00" fill="#000000"> mTensor</text>
</g>
</g>
</svg>
