<?xml version="1.0" encoding="UTF-8" standalone="no"?>
<!DOCTYPE svg PUBLIC "-//W3C//DTD SVG 1.1//EN"
 "http://www.w3.org/Graphics/SVG/1.1/DTD/svg11.dtd">
<!-- Generated by graphviz version 2.40.1 (20161225.0304)
 -->
<!-- Title: Graphical Class Hierarchy Pages: 1 -->
<svg width="327pt" height="66pt"
 viewBox="0.00 0.00 327.00 66.00" xmlns="http://www.w3.org/2000/svg" xmlns:xlink="http://www.w3.org/1999/xlink">
<g id="graph0" class="graph" transform="scale(1 1) rotate(0) translate(4 62)">
<title>Graphical Class Hierarchy</title>
<!-- Node0 -->
<g id="node1" class="node">
<title>Node0</title>
<g id="a_node1"><a xlink:href="dc/d7b/classathena_1_1core_1_1AbstractNode.html" target="_top" xlink:title="athena::core::AbstractNode">
<polygon fill="none" stroke="#000000" points="0,-19.5 0,-38.5 149,-38.5 149,-19.5 0,-19.5"/>
<text text-anchor="middle" x="74.5" y="-26.5" font-family="Helvetica,sans-Serif" font-size="10.00" fill="#000000">athena::core::AbstractNode</text>
</a>
</g>
</g>
<!-- Node1 -->
<g id="node2" class="node">
<title>Node1</title>
<g id="a_node2"><a xlink:href="d0/df8/classathena_1_1core_1_1InputNode.html" target="_top" xlink:title="athena::core::InputNode">
<polygon fill="none" stroke="#000000" points="185,-38.5 185,-57.5 319,-57.5 319,-38.5 185,-38.5"/>
<text text-anchor="middle" x="252" y="-45.5" font-family="Helvetica,sans-Serif" font-size="10.00" fill="#000000">athena::core::InputNode</text>
</a>
</g>
</g>
<!-- Node0&#45;&gt;Node1 -->
<g id="edge1" class="edge">
<title>Node0&#45;&gt;Node1</title>
<path fill="none" stroke="#191970" d="M159.0737,-38.053C167.6885,-38.9751 176.3558,-39.9029 184.75,-40.8014"/>
<polygon fill="#191970" stroke="#191970" points="159.3202,-34.5594 149.0045,-36.9751 158.5751,-41.5197 159.3202,-34.5594"/>
</g>
<!-- Node2 -->
<g id="node3" class="node">
<title>Node2</title>
<g id="a_node3"><a xlink:href="d4/d4c/classathena_1_1core_1_1Node.html" target="_top" xlink:title="athena::core::Node">
<polygon fill="none" stroke="#000000" points="197.5,-.5 197.5,-19.5 306.5,-19.5 306.5,-.5 197.5,-.5"/>
<text text-anchor="middle" x="252" y="-7.5" font-family="Helvetica,sans-Serif" font-size="10.00" fill="#000000">athena::core::Node</text>
</a>
</g>
</g>
<!-- Node0&#45;&gt;Node2 -->
<g id="edge2" class="edge">
<title>Node0&#45;&gt;Node2</title>
<path fill="none" stroke="#191970" d="M158.9524,-19.96C172.0175,-18.5615 185.2072,-17.1497 197.3852,-15.8461"/>
<polygon fill="#191970" stroke="#191970" points="158.5751,-16.4803 149.0045,-21.0249 159.3202,-23.4406 158.5751,-16.4803"/>
</g>
</g>
</svg>
