<?xml version="1.0" encoding="UTF-8" standalone="no"?>
<!DOCTYPE svg PUBLIC "-//W3C//DTD SVG 1.1//EN"
 "http://www.w3.org/Graphics/SVG/1.1/DTD/svg11.dtd">
<!-- Generated by graphviz version 2.40.1 (20161225.0304)
 -->
<!-- Title: Graphical Class Hierarchy Pages: 1 -->
<svg width="372pt" height="66pt"
 viewBox="0.00 0.00 372.00 66.00" xmlns="http://www.w3.org/2000/svg" xmlns:xlink="http://www.w3.org/1999/xlink">
<g id="graph0" class="graph" transform="scale(1 1) rotate(0) translate(4 62)">
<title>Graphical Class Hierarchy</title>
<!-- Node0 -->
<g id="node1" class="node">
<title>Node0</title>
<g id="a_node1"><a xlink:href="db/d3a/classathena_1_1core_1_1AbstractLoader.html" target="_top" xlink:title="athena::core::AbstractLoader">
<polygon fill="none" stroke="#000000" points="0,-19.5 0,-38.5 157,-38.5 157,-19.5 0,-19.5"/>
<text text-anchor="middle" x="78.5" y="-26.5" font-family="Helvetica,sans-Serif" font-size="10.00" fill="#000000">athena::core::AbstractLoader</text>
</a>
</g>
</g>
<!-- Node1 -->
<g id="node2" class="node">
<title>Node1</title>
<g id="a_node2"><a xlink:href="d6/d3e/classathena_1_1core_1_1DummyLoader.html" target="_top" xlink:title="athena::core::DummyLoader">
<polygon fill="none" stroke="#000000" points="201,-38.5 201,-57.5 356,-57.5 356,-38.5 201,-38.5"/>
<text text-anchor="middle" x="278.5" y="-45.5" font-family="Helvetica,sans-Serif" font-size="10.00" fill="#000000">athena::core::DummyLoader</text>
</a>
</g>
</g>
<!-- Node0&#45;&gt;Node1 -->
<g id="edge1" class="edge">
<title>Node0&#45;&gt;Node1</title>
<path fill="none" stroke="#191970" d="M167.4111,-37.4466C178.5409,-38.5039 189.8561,-39.5788 200.7962,-40.6181"/>
<polygon fill="#191970" stroke="#191970" points="167.5444,-33.9435 157.2582,-36.482 166.8823,-40.9122 167.5444,-33.9435"/>
</g>
<!-- Node2 -->
<g id="node3" class="node">
<title>Node2</title>
<g id="a_node3"><a xlink:href="d5/d50/classathena_1_1loaders_1_1MemoryLoader.html" target="_top" xlink:title="athena::loaders::MemoryLoader">
<polygon fill="none" stroke="#000000" points="193,-.5 193,-19.5 364,-19.5 364,-.5 193,-.5"/>
<text text-anchor="middle" x="278.5" y="-7.5" font-family="Helvetica,sans-Serif" font-size="10.00" fill="#000000">athena::loaders::MemoryLoader</text>
</a>
</g>
</g>
<!-- Node0&#45;&gt;Node2 -->
<g id="edge2" class="edge">
<title>Node0&#45;&gt;Node2</title>
<path fill="none" stroke="#191970" d="M167.4866,-20.5463C175.9286,-19.7443 184.4765,-18.9322 192.8859,-18.1333"/>
<polygon fill="#191970" stroke="#191970" points="166.8823,-17.0878 157.2582,-21.518 167.5444,-24.0565 166.8823,-17.0878"/>
</g>
</g>
</svg>
