<?xml version="1.0" encoding="UTF-8" standalone="no"?>
<!DOCTYPE svg PUBLIC "-//W3C//DTD SVG 1.1//EN"
 "http://www.w3.org/Graphics/SVG/1.1/DTD/svg11.dtd">
<!-- Generated by graphviz version 2.40.1 (20161225.0304)
 -->
<!-- Title: Graphical Class Hierarchy Pages: 1 -->
<svg width="345pt" height="66pt"
 viewBox="0.00 0.00 345.00 66.00" xmlns="http://www.w3.org/2000/svg" xmlns:xlink="http://www.w3.org/1999/xlink">
<g id="graph0" class="graph" transform="scale(1 1) rotate(0) translate(4 62)">
<title>Graphical Class Hierarchy</title>
<!-- Node0 -->
<g id="node1" class="node">
<title>Node0</title>
<g id="a_node1"><a xlink:href="d3/d1d/classathena_1_1core_1_1Operation.html" target="_top" xlink:title="athena::core::Operation">
<polygon fill="none" stroke="#000000" points="0,-19.5 0,-38.5 131,-38.5 131,-19.5 0,-19.5"/>
<text text-anchor="middle" x="65.5" y="-26.5" font-family="Helvetica,sans-Serif" font-size="10.00" fill="#000000">athena::core::Operation</text>
</a>
</g>
</g>
<!-- Node1 -->
<g id="node2" class="node">
<title>Node1</title>
<g id="a_node2"><a xlink:href="d6/d00/classathena_1_1core_1_1OperationDummy.html" target="_top" xlink:title="athena::core::OperationDummy">
<polygon fill="none" stroke="#000000" points="167,-38.5 167,-57.5 337,-57.5 337,-38.5 167,-38.5"/>
<text text-anchor="middle" x="252" y="-45.5" font-family="Helvetica,sans-Serif" font-size="10.00" fill="#000000">athena::core::OperationDummy</text>
</a>
</g>
</g>
<!-- Node0&#45;&gt;Node1 -->
<g id="edge1" class="edge">
<title>Node0&#45;&gt;Node1</title>
<path fill="none" stroke="#191970" d="M141.392,-36.7316C149.7994,-37.5881 158.4019,-38.4645 166.913,-39.3316"/>
<polygon fill="#191970" stroke="#191970" points="141.5562,-33.2303 131.2529,-35.6987 140.8467,-40.1943 141.5562,-33.2303"/>
</g>
<!-- Node2 -->
<g id="node3" class="node">
<title>Node2</title>
<g id="a_node3"><a xlink:href="d9/da1/classathena_1_1ops_1_1AddOperation.html" target="_top" xlink:title="athena::ops::AddOperation">
<polygon fill="none" stroke="#000000" points="179,-.5 179,-19.5 325,-19.5 325,-.5 179,-.5"/>
<text text-anchor="middle" x="252" y="-7.5" font-family="Helvetica,sans-Serif" font-size="10.00" fill="#000000">athena::ops::AddOperation</text>
</a>
</g>
</g>
<!-- Node0&#45;&gt;Node2 -->
<g id="edge2" class="edge">
<title>Node0&#45;&gt;Node2</title>
<path fill="none" stroke="#191970" d="M141.5079,-21.2566C153.8571,-19.9985 166.6242,-18.6978 178.9018,-17.447"/>
<polygon fill="#191970" stroke="#191970" points="140.8467,-17.8057 131.2529,-22.3013 141.5562,-24.7697 140.8467,-17.8057"/>
</g>
</g>
</svg>
